<?xml version="1.0" encoding="utf-8"?>
<!-- Generator: Adobe Illustrator 23.0.5, SVG Export Plug-In . SVG Version: 6.00 Build 0)  -->
<svg version="1.1" id="Layer_1" xmlns="http://www.w3.org/2000/svg" xmlns:xlink="http://www.w3.org/1999/xlink" x="0px" y="0px"
	 viewBox="0 0 136 37.7" style="enable-background:new 0 0 136 37.7;" xml:space="preserve">
<style type="text/css">
	.st0{clip-path:url(#SVGID_2_);}
</style>
<g>
	<defs>
		<rect id="SVGID_1_" x="0.1" y="0.2" width="135.4" height="36.5"/>
	</defs>
	<clipPath id="SVGID_2_">
		<use xlink:href="#SVGID_1_"  style="overflow:visible;"/>
	</clipPath>
	<path class="st0" d="M28.5,10.2V0.6h2.3v9.6c0,2.7,1.2,4,3.6,4c2.4,0,3.6-1.3,3.6-4V0.6h2.3v9.6c0,3.9-2.2,6.2-5.9,6.2
		C30.7,16.4,28.5,14.1,28.5,10.2 M47.7,4.7c-1.1,0-2.4,0.5-3.2,1.5l-0.1-1.2h-1.9v11.2h2.2v-5.2c0-0.7,0-1.9,0.4-2.7
		c0.5-1,1.3-1.6,2.2-1.6c1.5,0,2.2,0.8,2.2,2.4v7.1h2.2V8.8C51.7,6.2,50.2,4.7,47.7,4.7 M56.3,0.3h-2.5v2.5h2.5V0.3z M56.1,16.2V4.9
		h-2.2v5.6v5.6H56.1z M63.8,16.2l4.1-11.2h-2.2l-2.9,8.3l-3-8.3h-2.3l4.1,11.2H63.8z M73.4,16.4c-1.5,0-2.8-0.6-3.7-1.7
		c-0.9-1-1.4-2.5-1.4-4.1c0-1.4,0.3-2.6,0.9-3.6c0.9-1.5,2.4-2.4,4.3-2.4c1.4,0,2.6,0.5,3.4,1.5c0.9,1,1.4,2.5,1.4,3.9l0,1.3h-7.7
		c0,0.9,0.4,1.8,1,2.4c0.5,0.5,1.1,0.7,1.9,0.7c0.8,0,1.5-0.2,1.9-0.7c0.3-0.3,0.5-0.5,0.6-1.1l0-0.1H78l0,0.2
		c-0.2,1.1-0.8,2.2-1.7,2.8C75.4,16.1,74.4,16.4,73.4,16.4 M76,9.4c0-0.7-0.3-1.4-0.6-1.9c-0.4-0.6-1.1-0.9-2-0.9
		c-1.8,0-2.7,1.4-2.8,2.8H76z M82.2,11.1c0-1.1,0.1-2.5,0.9-3.3c0.3-0.3,1-0.8,1.9-0.8c0.3,0,0.6,0,1,0.1l0.2,0V5l-0.2,0
		c-0.3,0-0.6-0.1-0.9-0.1c-1.3,0-2.5,0.6-3.1,1.5L82,4.9h-2v11.2h2.2V11.1z M95.1,15.2c0.6-0.6,0.9-1.4,0.9-2.3
		c0-1.6-1.2-2.9-2.9-3.2c-0.8-0.1-1.4-0.2-2-0.3c-0.2,0-0.5-0.1-0.6-0.1c-0.9-0.1-1.3-0.5-1.3-1.2c0-0.5,0.4-1,1-1.3
		c0.5-0.2,0.8-0.2,1.2-0.2c0.7,0,1.3,0.2,1.7,0.5c0.3,0.2,0.5,0.7,0.6,1.2l0,0.2h2.2V8.3c0-0.8-0.3-1.5-0.8-2.2
		c-0.7-0.9-2-1.4-3.6-1.4c-1.3,0-2.6,0.5-3.3,1.3c-0.5,0.5-1,1.3-1,2.3c0,1.7,1,2.8,2.8,3.1c0.5,0.1,1.1,0.2,1.7,0.2
		c0.3,0,0.6,0.1,0.8,0.1c1,0.1,1.5,0.6,1.5,1.4c0,0.5-0.2,0.9-0.5,1c-0.5,0.4-1,0.6-1.9,0.6c-0.8,0-1.4-0.2-1.8-0.5
		c-0.5-0.4-0.8-0.9-0.8-1.6l0-0.2h-2.2v0.2c0,1,0.4,1.9,1.1,2.6c0.9,0.8,2.1,1.3,3.6,1.3C93.1,16.4,94.3,16,95.1,15.2L95.1,15.2z
		 M100.3,0.3h-2.5v2.5h2.5V0.3z M100.2,16.2V4.9H98v5.6v5.6H100.2z M103.7,15.2c-1-1-1.6-2.7-1.6-4.6c0-2,0.6-3.7,1.7-4.8
		c0.8-0.7,1.9-1.1,3.1-1.1c1,0,2.2,0.4,3,1.2V0.3h2.2v15.8h-2l-0.1-1.1c-0.8,0.9-2.1,1.4-3.1,1.4C105.6,16.4,104.5,16,103.7,15.2
		 M107.2,14.5c0.8,0,1.3-0.4,1.6-0.7c0.8-0.7,1.1-1.8,1.1-3.3c0-1.5-0.4-2.6-1.1-3.3l0,0c-0.3-0.3-0.8-0.7-1.6-0.7
		c-2.5,0-2.9,2.5-2.9,4C104.3,12,104.7,14.5,107.2,14.5 M124.1,14.3l0.2-0.1V16l-0.1,0.1c-0.4,0.2-0.8,0.3-1.3,0.3
		c-0.9,0-1.5-0.5-1.7-1.4c-0.7,0.9-2,1.5-3.4,1.5c-2.7,0-3.9-1.8-3.9-3.5c0-2.5,2.2-3.5,4-3.6l3.1-0.2V8.5c0-0.5-0.1-1.1-0.5-1.5
		c-0.4-0.3-0.9-0.5-1.7-0.5c-0.8,0-1.5,0.2-1.8,0.6c-0.3,0.3-0.5,0.7-0.5,1.2v0.2h-2.1l0-0.2c0-0.9,0.3-1.7,1-2.4
		c0.7-0.8,2-1.2,3.5-1.2c2,0,3.4,0.8,4,2.2c0.2,0.5,0.3,1.1,0.3,1.7v5.3c0,0.5,0.2,0.5,0.4,0.5C123.8,14.4,124,14.4,124.1,14.3
		 M118.3,11.1c-1.1,0.1-2.2,0.6-2.2,1.8c0,1.1,0.7,1.7,2,1.7c0.8,0,1.6-0.3,2.1-0.8c0.6-0.6,0.9-1.4,0.9-2.3v-0.4L118.3,11.1z
		 M135.4,0.3v15.8h-2l-0.1-1.1c-0.8,0.9-2.1,1.4-3.1,1.4c-1.3,0-2.4-0.4-3.2-1.2c-1-1-1.6-2.7-1.6-4.6c0-2,0.6-3.7,1.7-4.8
		c0.8-0.7,1.9-1.1,3.1-1.1c1,0,2.2,0.4,3,1.2V0.3H135.4z M132.2,7.2c-0.3-0.3-0.8-0.7-1.6-0.7c-2.5,0-2.9,2.5-2.9,4
		c0,1.5,0.4,4,2.9,4c0.8,0,1.3-0.4,1.6-0.7c0.8-0.7,1.1-1.8,1.1-3.3C133.4,9,133,7.9,132.2,7.2L132.2,7.2z M34.5,32l-4.1-12.4h-2.4
		l5.2,15.6h2.3l5.2-15.6h-2.3L34.5,32z M42.5,21.8H45v-2.5h-2.5V21.8z M42.6,35.1h2.2V23.9h-2.2v5.6V35.1z M51.2,33.2
		c0,0-0.2,0-0.7,0c-0.6,0-0.8-0.2-0.8-0.9v-13h-2.2v13.1c0,1.9,0.8,2.8,2.5,2.8c0.9,0,1.3-0.1,1.3-0.1l0.1,0l0-1.9L51.2,33.2z
		 M56.6,33.2c0,0-0.2,0-0.7,0c-0.6,0-0.8-0.2-0.8-0.9v-13h-2.2v13.1c0,1.9,0.8,2.8,2.5,2.8c0.9,0,1.3-0.1,1.3-0.1l0.1,0l0-1.9
		L56.6,33.2z M68.3,33.3l0.2-0.1V35L68.4,35c-0.4,0.2-0.8,0.3-1.3,0.3c-0.9,0-1.5-0.5-1.7-1.4c-0.7,0.9-2,1.5-3.4,1.5
		c-2.7,0-3.9-1.8-3.9-3.5c0-2.5,2.2-3.5,4-3.6l3.1-0.2v-0.6c0-0.5-0.1-1.1-0.5-1.5c-0.4-0.3-0.9-0.5-1.7-0.5c-0.8,0-1.5,0.2-1.8,0.6
		c-0.3,0.3-0.5,0.7-0.5,1.2v0.2h-2.1l0-0.2c0-0.9,0.3-1.7,1-2.4c0.7-0.8,2-1.2,3.5-1.2c2,0,3.4,0.8,4,2.2c0.2,0.5,0.3,1.1,0.3,1.7
		v5.3c0,0.5,0.2,0.5,0.4,0.5C68,33.4,68.3,33.3,68.3,33.3 M62.6,30.1c-1.1,0.1-2.2,0.6-2.2,1.8c0,1.1,0.7,1.7,2,1.7
		c0.8,0,1.6-0.3,2.1-0.8c0.6-0.6,0.9-1.4,0.9-2.3v-0.4L62.6,30.1z M75.5,23.6c-1.1,0-2.4,0.5-3.2,1.5l-0.1-1.2h-1.9v11.2h2.2v-5.2
		c0-0.7,0-1.9,0.4-2.7c0.5-1,1.3-1.6,2.2-1.6c1.5,0,2.2,0.8,2.2,2.4v7.1h2.2v-7.3C79.4,25.2,78,23.6,75.5,23.6 M88.3,29.7
		c0,0.9-0.1,2.2-0.8,2.9c-0.5,0.5-1,0.8-1.7,0.8c-1.5,0-2.1-0.7-2.1-2.4v-7h-2.2v7.3c0,2.7,1.4,4.2,3.9,4.2c1.1,0,2.4-0.5,3.1-1.5
		l0.1,1.2h1.9V23.9h-2.2V29.7z M101,25.1c0.9,1,1.4,2.5,1.4,3.9l0,1.3h-7.7c0,0.9,0.4,1.8,1,2.4c0.5,0.5,1.1,0.7,1.9,0.7
		c0.8,0,1.5-0.2,1.9-0.7c0.3-0.3,0.5-0.5,0.6-1.1l0-0.1h2.1l0,0.2c-0.2,1.1-0.8,2.2-1.7,2.8c-0.8,0.5-1.8,0.8-2.9,0.8
		c-1.5,0-2.8-0.6-3.7-1.7c-0.9-1-1.4-2.5-1.4-4.1c0-1.4,0.3-2.6,0.9-3.6c0.9-1.5,2.4-2.4,4.3-2.4C98.9,23.6,100.1,24.1,101,25.1
		 M94.7,28.4h5.4c0-0.7-0.3-1.4-0.6-1.9c-0.4-0.6-1.1-0.9-2-0.9C95.7,25.6,94.8,26.9,94.7,28.4 M108.2,32.3l-3-8.3h-2.3l4.1,11.2
		h2.2l4.1-11.2h-2.2L108.2,32.3z M124.1,33.3l0.2-0.1V35l-0.1,0.1c-0.4,0.2-0.8,0.3-1.3,0.3c-0.9,0-1.5-0.5-1.7-1.4
		c-0.7,0.9-2,1.5-3.4,1.5c-2.7,0-3.9-1.8-3.9-3.5c0-2.5,2.2-3.5,4-3.6l3.1-0.2v-0.6c0-0.5-0.1-1.1-0.5-1.5c-0.4-0.3-0.9-0.5-1.7-0.5
		c-0.8,0-1.5,0.2-1.8,0.6c-0.3,0.3-0.5,0.7-0.5,1.2v0.2h-2.1l0-0.2c0-0.9,0.3-1.7,1-2.4c0.7-0.8,2-1.2,3.5-1.2c2,0,3.4,0.8,4,2.2
		c0.2,0.5,0.3,1.1,0.3,1.7v5.3c0,0.5,0.2,0.5,0.4,0.5C123.8,33.4,124.1,33.3,124.1,33.3 M118.3,30.1c-1.1,0.1-2.2,0.6-2.2,1.8
		c0,1.1,0.7,1.7,2,1.7c0.8,0,1.6-0.3,2.1-0.8c0.6-0.6,0.9-1.4,0.9-2.3v-0.4L118.3,30.1z M16.3,19.6L9.5,32.2L2.6,19.6H0.2l9.3,17.1
		l9.3-17.1H16.3z M9.5,23.3l-2-3.8H5l4.5,8.3l4.5-8.3h-2.5L9.5,23.3z M17.3,9V0.5h-2.2V9c0,3.1-2.5,5.6-5.6,5.6
		c-3.1,0-5.6-2.5-5.6-5.6V0.5H1.7V9c0,4.3,3.5,7.8,7.8,7.8C13.8,16.8,17.3,13.3,17.3,9 M13,8.9V0.5h-2.2v8.5c0,0.7-0.6,1.3-1.3,1.3
		c-0.7,0-1.3-0.6-1.3-1.3V0.5H6v8.5c0,1.9,1.6,3.5,3.5,3.5C11.4,12.4,13,10.9,13,8.9"/>
</g>
</svg>
